<svg width="2400" height="120" viewBox="0 0 2400 120" fill="none" xmlns="http://www.w3.org/2000/svg">
<path opacity="0.25" d="M2400 120V70.62C2344 55.6148 2296.41 41.54 2242 45.71C2171.64 51.08 2105.67 79.02 2035.2 83.21C1961.36 87.57 1887.66 66.33 1817 47.95C1747.73 29.95 1678.7 23.07 1607.6 34.87C1571.45 40.87 1537.75 52.71 1503.15 64.21C1410.51 95 1296 96.3431 1200 70.62V120L2400 120Z" fill="white"/>
<path opacity="0.5" d="M2400 120V101.375C2370.5 101.375 2349.55 59.19 2329.5 44C2277.78 4.78 2235 9 2175.42 28.42C2144.27 38.57 2115.33 54.49 2085.75 68.22C2044.83 87.22 2001.02 114.22 1954.92 117.89C1918.66 120.74 1884.02 108.47 1856.32 86.33C1824.55 60.94 1794 24.33 1752.69 13.33C1712.25 2.54 1671.34 20.02 1633.56 37.61C1595.78 55.2 1558.4 76.61 1516.64 80.66C1456.91 86.51 1403.36 57.78 1347.74 41.82C1317.54 33.16 1297.59 37.83 1269.5 51.5C1247.07 62.39 1233.5 101.375 1200 101.375V120L2400 120Z" fill="white"/>
<path d="M2400 120V114.37C2249 114.37 2085.91 48.68 1924.17 77.43C1881.17 85.07 1839.94 97.55 1796.56 103.89C1737.56 112.52 1684.08 91.65 1631 68.49C1572.07 42.78 1514 24.76 1448.8 30C1362.27 37 1284 114.81 1200 114.81V120L2400 120Z" fill="white"/>
<path opacity="0.25" d="M1200 120V70.62C1144 55.6148 1096.41 41.54 1042 45.71C971.64 51.08 905.67 79.02 835.2 83.21C761.36 87.57 687.66 66.33 617 47.95C547.73 29.95 478.7 23.07 407.6 34.87C371.45 40.87 337.75 52.71 303.15 64.21C210.51 95 96 96.3431 0 70.62V120L1200 120Z" fill="white"/>
<path opacity="0.5" d="M1200 120V101.375C1170.5 101.375 1149.55 59.19 1129.5 44C1077.78 4.78 1035 9 975.42 28.42C944.27 38.57 915.33 54.49 885.75 68.22C844.83 87.22 801.02 114.22 754.92 117.89C718.66 120.74 684.02 108.47 656.32 86.33C624.55 60.94 594 24.33 552.69 13.33C512.25 2.54 471.34 20.02 433.56 37.61C395.78 55.2 358.4 76.61 316.64 80.66C256.91 86.51 203.36 57.78 147.74 41.82C117.54 33.16 97.59 37.83 69.5 51.5C47.0699 62.39 33.5 101.375 0 101.375V120L1200 120Z" fill="white"/>
<path d="M1200 120V114.37C1049 114.37 885.91 48.68 724.17 77.43C681.17 85.07 639.94 97.55 596.56 103.89C537.56 112.52 484.08 91.65 431 68.49C372.07 42.78 314 24.76 248.8 30C162.27 37 84 114.81 0 114.81V120L1200 120Z" fill="white"/>
</svg>
