<svg width="1200" height="120" viewBox="0 0 1200 120" fill="none" xmlns="http://www.w3.org/2000/svg">
<path opacity="0.25" d="M1200 120V70.62C1144 55.6148 1096.41 41.54 1042 45.71C971.64 51.08 905.67 79.02 835.2 83.21C761.36 87.57 687.66 66.33 617 47.95C547.73 29.95 478.7 23.07 407.6 34.87C371.45 40.87 337.75 52.71 303.15 64.21C210.51 95 96 96.3431 0 70.62V120L1200 120Z" fill="white"/>
<path opacity="0.5" d="M1200 120V101.375C1170.5 101.375 1149.55 59.19 1129.5 44C1077.78 4.78 1035 9 975.42 28.42C944.27 38.57 915.33 54.49 885.75 68.22C844.83 87.22 801.02 114.22 754.92 117.89C718.66 120.74 684.02 108.47 656.32 86.33C624.55 60.94 594 24.33 552.69 13.33C512.25 2.54 471.34 20.02 433.56 37.61C395.78 55.2 358.4 76.61 316.64 80.66C256.91 86.51 203.36 57.78 147.74 41.82C117.54 33.16 97.59 37.83 69.5 51.5C47.07 62.39 33.5 101.375 0 101.375V120L1200 120Z" fill="white"/>
<path d="M1200 120V114.37C1049 114.37 885.91 48.68 724.17 77.43C681.17 85.07 639.94 97.55 596.56 103.89C537.56 112.52 484.08 91.65 431 68.49C372.07 42.78 314 24.76 248.8 30C162.27 37 84 114.81 0 114.81V120L1200 120Z" fill="white"/>
</svg>
